solid Untitled-5e72380b
facet normal 0.0 0.0 -1.0
  outer loop
    vertex 20.0 5.0 1.9999999999999998
    vertex 0.0 1.9999999999999998 1.9999999999999998
    vertex 0.0 5.0 1.9999999999999998
  endloop
endfacet
facet normal 0.0 0.0 -1.0
  outer loop
    vertex 0.0 1.9999999999999998 1.9999999999999998
    vertex 20.0 5.0 1.9999999999999998
    vertex 20.0 1.9999999999999998 1.9999999999999998
  endloop
endfacet
facet normal 1.0 0.0 0.0
  outer loop
    vertex 0.0 6.999999999999998 0.0
    vertex 0.0 5.0 1.9999999999999998
    vertex 0.0 5.0 0.0
  endloop
endfacet
facet normal 1.0 0.0 0.0
  outer loop
    vertex 0.0 5.0 1.9999999999999998
    vertex 0.0 6.999999999999998 0.0
    vertex 0.0 5.0 17.0
  endloop
endfacet
facet normal 1.0 0.0 0.0
  outer loop
    vertex 0.0 5.0 17.0
    vertex 0.0 4.246907 19.0
    vertex 0.0 4.246907 17.0
  endloop
endfacet
facet normal 1.0 0.0 0.0
  outer loop
    vertex 0.0 4.246907 19.0
    vertex 0.0 5.0 17.0
    vertex 0.0 6.999999999999998 19.0
  endloop
endfacet
facet normal 1.0 0.0 0.0
  outer loop
    vertex 0.0 6.999999999999998 19.0
    vertex 0.0 5.0 17.0
    vertex 0.0 6.999999999999998 0.0
  endloop
endfacet
facet normal 1.0 0.0 0.0
  outer loop
    vertex 0.0 5.0 0.0
    vertex 0.0 1.9999999999999998 1.9999999999999998
    vertex 0.0 1.9999999999999998 0.0
  endloop
endfacet
facet normal 1.0 0.0 0.0
  outer loop
    vertex 0.0 1.9999999999999998 1.9999999999999998
    vertex 0.0 5.0 0.0
    vertex 0.0 5.0 1.9999999999999998
  endloop
endfacet
facet normal 1.0 0.0 0.0
  outer loop
    vertex 0.0 1.9999999999999998 0.0
    vertex 0.0 2.996214387707141e-15 19.0
    vertex 0.0 0.0 0.0
  endloop
endfacet
facet normal 1.0 0.0 0.0
  outer loop
    vertex 0.0 2.996214387707141e-15 19.0
    vertex 0.0 1.9999999999999998 0.0
    vertex 0.0 1.9999999999999998 1.9999999999999998
  endloop
endfacet
facet normal 1.0 0.0 0.0
  outer loop
    vertex 0.0 2.996214387707141e-15 19.0
    vertex 0.0 1.9999999999999998 1.9999999999999998
    vertex 0.0 2.0000000000000027 19.0
  endloop
endfacet
facet normal 0.0 1.0 0.0
  outer loop
    vertex 0.0 2.996214387707141e-15 19.0
    vertex 20.0 0.0 0.0
    vertex 0.0 0.0 0.0
  endloop
endfacet
facet normal 0.0 1.0 0.0
  outer loop
    vertex 20.0 0.0 0.0
    vertex 0.0 2.996214387707141e-15 19.0
    vertex 20.0 2.996214387707141e-15 19.0
  endloop
endfacet
facet normal -1.0 0.0 0.0
  outer loop
    vertex 20.0 6.999999999999998 19.0
    vertex 20.0 4.246907 17.0
    vertex 20.0 4.246907 19.0
  endloop
endfacet
facet normal -1.0 0.0 0.0
  outer loop
    vertex 20.0 4.246907 17.0
    vertex 20.0 6.999999999999998 19.0
    vertex 20.0 5.0 17.0
  endloop
endfacet
facet normal -1.0 0.0 0.0
  outer loop
    vertex 20.0 5.0 17.0
    vertex 20.0 6.999999999999998 19.0
    vertex 20.0 5.0 1.9999999999999998
  endloop
endfacet
facet normal -1.0 0.0 0.0
  outer loop
    vertex 20.0 5.0 1.9999999999999998
    vertex 20.0 6.999999999999998 19.0
    vertex 20.0 5.0 0.0
  endloop
endfacet
facet normal -1.0 0.0 0.0
  outer loop
    vertex 20.0 5.0 0.0
    vertex 20.0 6.999999999999998 19.0
    vertex 20.0 6.999999999999998 0.0
  endloop
endfacet
facet normal -1.0 0.0 0.0
  outer loop
    vertex 20.0 5.0 1.9999999999999998
    vertex 20.0 1.9999999999999998 0.0
    vertex 20.0 1.9999999999999998 1.9999999999999998
  endloop
endfacet
facet normal -1.0 0.0 0.0
  outer loop
    vertex 20.0 1.9999999999999998 0.0
    vertex 20.0 5.0 1.9999999999999998
    vertex 20.0 5.0 0.0
  endloop
endfacet
facet normal -1.0 0.0 0.0
  outer loop
    vertex 20.0 2.0000000000000027 19.0
    vertex 20.0 1.9999999999999998 1.9999999999999998
    vertex 20.0 2.996214387707141e-15 19.0
  endloop
endfacet
facet normal -1.0 0.0 0.0
  outer loop
    vertex 20.0 2.996214387707141e-15 19.0
    vertex 20.0 1.9999999999999998 0.0
    vertex 20.0 0.0 0.0
  endloop
endfacet
facet normal -1.0 0.0 0.0
  outer loop
    vertex 20.0 1.9999999999999998 0.0
    vertex 20.0 2.996214387707141e-15 19.0
    vertex 20.0 1.9999999999999998 1.9999999999999998
  endloop
endfacet
facet normal 0.0 -1.0 0.0
  outer loop
    vertex 20.0 6.999999999999998 19.0
    vertex 0.0 6.999999999999998 0.0
    vertex 20.0 6.999999999999998 0.0
  endloop
endfacet
facet normal 0.0 -1.0 0.0
  outer loop
    vertex 0.0 6.999999999999998 0.0
    vertex 20.0 6.999999999999998 19.0
    vertex 0.0 6.999999999999998 19.0
  endloop
endfacet
facet normal 0.0 1.0 0.0
  outer loop
    vertex 0.0 5.0 17.0
    vertex 20.0 5.0 1.9999999999999998
    vertex 0.0 5.0 1.9999999999999998
  endloop
endfacet
facet normal 0.0 1.0 0.0
  outer loop
    vertex 20.0 5.0 1.9999999999999998
    vertex 0.0 5.0 17.0
    vertex 20.0 5.0 17.0
  endloop
endfacet
facet normal 0.0 -1.0 1.762479051592436e-16
  outer loop
    vertex 20.0 2.0000000000000027 19.0
    vertex 0.0 1.9999999999999998 1.9999999999999998
    vertex 20.0 1.9999999999999998 1.9999999999999998
  endloop
endfacet
facet normal 0.0 -1.0 1.762479051592436e-16
  outer loop
    vertex 0.0 1.9999999999999998 1.9999999999999998
    vertex 20.0 2.0000000000000027 19.0
    vertex 0.0 2.0000000000000027 19.0
  endloop
endfacet
facet normal 0.0 0.0 -1.0
  outer loop
    vertex 20.0 6.999999999999998 19.0
    vertex 0.0 4.246907 19.0
    vertex 0.0 6.999999999999998 19.0
  endloop
endfacet
facet normal 0.0 0.0 -1.0
  outer loop
    vertex 0.0 4.246907 19.0
    vertex 20.0 6.999999999999998 19.0
    vertex 20.0 4.246907 19.0
  endloop
endfacet
facet normal 0.0 -1.762479051592436e-16 -1.0
  outer loop
    vertex 20.0 2.0000000000000027 19.0
    vertex 0.0 2.996214387707141e-15 19.0
    vertex 0.0 2.0000000000000027 19.0
  endloop
endfacet
facet normal 0.0 -1.762479051592436e-16 -1.0
  outer loop
    vertex 0.0 2.996214387707141e-15 19.0
    vertex 20.0 2.0000000000000027 19.0
    vertex 20.0 2.996214387707141e-15 19.0
  endloop
endfacet
facet normal 0.0 1.0 0.0
  outer loop
    vertex 0.0 4.246907 19.0
    vertex 20.0 4.246907 17.0
    vertex 0.0 4.246907 17.0
  endloop
endfacet
facet normal 0.0 1.0 0.0
  outer loop
    vertex 20.0 4.246907 17.0
    vertex 0.0 4.246907 19.0
    vertex 20.0 4.246907 19.0
  endloop
endfacet
facet normal 0.0 0.0 1.0
  outer loop
    vertex 20.0 4.246907 17.0
    vertex 0.0 5.0 17.0
    vertex 0.0 4.246907 17.0
  endloop
endfacet
facet normal 0.0 0.0 1.0
  outer loop
    vertex 0.0 5.0 17.0
    vertex 20.0 4.246907 17.0
    vertex 20.0 5.0 17.0
  endloop
endfacet
endsolid Untitled-5e72380b
